<?xml version="1.0" encoding="UTF-8" standalone="no"?><!DOCTYPE svg PUBLIC "-//W3C//DTD SVG 1.1//EN" "http://www.w3.org/Graphics/SVG/1.1/DTD/svg11.dtd"><svg width="100%" height="100%" viewBox="0 0 400 400" version="1.1" xmlns="http://www.w3.org/2000/svg" xmlns:xlink="http://www.w3.org/1999/xlink" xml:space="preserve" xmlns:serif="http://www.serif.com/" style="fill-rule:evenodd;clip-rule:evenodd;stroke-linecap:round;stroke-linejoin:round;stroke-miterlimit:1.5;"><g><g><ellipse cx="200" cy="193.75" rx="65.291" ry="68.475"/><ellipse cx="161.612" cy="231.664" rx="28.596" ry="29.991" style="fill:#fff;"/></g><path d="M389.673,193.75c-35.418,41.538 -100.992,82.89 -189.673,82.89c-88.681,-0 -158.113,-45.533 -189.673,-82.89c25.77,-48.067 100.992,-82.89 189.673,-82.89c88.681,0 163.903,34.823 189.673,82.89Z" style="fill:none;stroke:#000;stroke-width:6.25px;"/></g><g transform="matrix(2.9227,0,0,3.26934,-404.561,-6.31255)"><text x="140.566px" y="8.45px" style="font-family:'ArialMT', 'Arial', sans-serif;font-size:6.667px;">Lorem <tspan x="162.273px " y="8.45px ">i</tspan>psum <tspan x="182.867px " y="8.45px ">d</tspan>olor <tspan x="200.502px " y="8.45px ">s</tspan>it <tspan x="209.979px " y="8.45px ">a</tspan>met, <tspan x="229.463px " y="8.45px ">c</tspan>onsectetursdf</text><text x="140.566px" y="15.334px" style="font-family:'ArialMT', 'Arial', sans-serif;font-size:6.667px;">adipiscing <tspan x="172.697px " y="15.334px ">e</tspan>lit, <tspan x="185.554px " y="15.334px ">s</tspan>ed <tspan x="198.785px " y="15.334px ">d</tspan>o <tspan x="208.682px " y="15.334px ">e</tspan>iusmod <tspan x="236.363px " y="15.334px ">t</tspan>empor <tspan x="259.594px " y="15.334px ">d</tspan>ry <tspan x="271.338px " y="15.334px ">l</tspan></text><text x="140.566px" y="22.219px" style="font-family:'ArialMT', 'Arial', sans-serif;font-size:6.667px;">incididunt <tspan x="171.379px " y="22.219px ">u</tspan>t <tspan x="179.584px " y="22.219px ">l</tspan>abore <tspan x="200.761px " y="22.219px ">e</tspan>t <tspan x="208.967px " y="22.219px ">d</tspan>olore <tspan x="230.144px " y="22.219px ">m</tspan>agna <tspan x="253.174px " y="22.219px ">I</tspan>aliqua</text><text x="140.566px" y="29.104px" style="font-family:'ArialMT', 'Arial', sans-serif;font-size:6.667px;">Ut <tspan x="149.876px " y="29.104px ">e</tspan>nim <tspan x="166.968px " y="29.104px ">a</tspan>d <tspan x="177.026px " y="29.104px ">m</tspan>inim <tspan x="197.446px " y="29.104px ">b</tspan>ro <tspan x="209.724px " y="29.104px ">v</tspan>eniam, <tspan x="235.71px " y="29.104px ">q</tspan>uis <tspan x="250.582px " y="29.104px ">n</tspan>ostrud</text><text x="140.566px" y="35.989px" style="font-family:'ArialMT', 'Arial', sans-serif;font-size:6.667px;">exercitation <tspan x="176.153px 180.232px 182.095px " y="35.989px 35.989px 35.989px ">A  </tspan>         <tspan x="200.727px " y="35.989px "> </tspan>         <tspan x="219.359px " y="35.989px "> </tspan>       lol Ik <tspan x="249.847px " y="35.989px ">u</tspan>llamco</text><text x="140.566px" y="42.874px" style="font-family:'ArialMT', 'Arial', sans-serif;font-size:6.667px;">laboris <tspan x="162.185px 164.166px 166.147px 168.127px 170.108px 172.089px 174.069px 176.05px 178.03px 180.011px 181.992px 183.972px 185.953px 187.934px 189.914px 191.895px 193.875px 195.856px 197.837px 199.817px 201.798px 203.779px 205.759px 207.74px 209.72px 211.701px 213.682px 215.662px 217.643px 219.624px 221.604px 223.585px 225.565px 227.546px 229.527px 231.507px 233.488px 235.469px 237.449px 239.43px 241.411px 243.391px 245.372px 247.352px 249.333px 251.314px 253.294px 255.275px " y="42.874px 42.874px 42.874px 42.874px 42.874px 42.874px 42.874px 42.874px 42.874px 42.874px 42.874px 42.874px 42.874px 42.874px 42.874px 42.874px 42.874px 42.874px 42.874px 42.874px 42.874px 42.874px 42.874px 42.874px 42.874px 42.874px 42.874px 42.874px 42.874px 42.874px 42.874px 42.874px 42.874px 42.874px 42.874px 42.874px 42.874px 42.874px 42.874px 42.874px 42.874px 42.874px 42.874px 42.874px 42.874px 42.874px 42.874px 42.874px ">                                               n</tspan>isi <tspan x="267.259px " y="42.874px ">u</tspan>t</text><text x="140.566px" y="49.758px" style="font-family:'ArialMT', 'Arial', sans-serif;font-size:6.667px;">ali <tspan x="268.372px " y="49.758px ">A</tspan></text><text x="140.566px" y="73.096px" style="font-family:'ArialMT', 'Arial', sans-serif;font-size:6.667px;">ex   <tspan x="153.307px " y="73.096px "> </tspan>  <tspan x="159.007px " y="73.096px "> </tspan>  <tspan x="164.707px " y="73.096px "> </tspan>  <tspan x="170.406px " y="73.096px "> </tspan>  <tspan x="176.106px " y="73.096px "> </tspan>  <tspan x="181.806px " y="73.096px "> </tspan>  <tspan x="187.506px " y="73.096px "> </tspan>  <tspan x="193.206px " y="73.096px "> </tspan>  <tspan x="198.905px " y="73.096px "> </tspan>  <tspan x="204.605px " y="73.096px "> </tspan>  <tspan x="210.305px " y="73.096px "> </tspan>  <tspan x="216.005px " y="73.096px "> </tspan>  <tspan x="221.705px " y="73.096px "> </tspan>  <tspan x="227.405px " y="73.096px "> </tspan>  <tspan x="233.104px " y="73.096px "> </tspan>  <tspan x="238.804px " y="73.096px "> </tspan>  <tspan x="244.504px " y="73.096px "> </tspan>  <tspan x="250.204px " y="73.096px "> </tspan>  <tspan x="255.904px " y="73.096px "> </tspan>  <tspan x="261.603px " y="73.096px "> </tspan> ea</text><text x="140.566px" y="79.981px" style="font-family:'ArialMT', 'Arial', sans-serif;font-size:6.667px;">lolbut                                                     comm</text><text x="140.566px" y="86.865px" style="font-family:'ArialMT', 'Arial', sans-serif;font-size:6.667px;">odo <tspan x="154.387px " y="86.865px ">c</tspan>ons <tspan x="171.167px " y="86.865px ">l</tspan>o <tspan x="179.054px 181.752px 184.45px 187.149px 189.847px 192.545px 195.243px 197.941px 200.639px 203.337px 206.035px 208.733px 211.432px 214.13px 216.828px 219.526px 222.224px 224.922px 227.62px 230.318px 233.016px 235.714px 238.413px " y="86.865px 86.865px 86.865px 86.865px 86.865px 86.865px 86.865px 86.865px 86.865px 86.865px 86.865px 86.865px 86.865px 86.865px 86.865px 86.865px 86.865px 86.865px 86.865px 86.865px 86.865px 86.865px 86.865px ">                      q</tspan>u <tspan x="248.526px " y="86.865px ">D</tspan>uis <tspan x="264.561px 266.413px 269.111px " y="86.865px 86.865px 86.865px ">I a</tspan></text><text x="140.566px" y="93.75px" style="font-family:'ArialMT', 'Arial', sans-serif;font-size:6.667px;">ute <tspan x="152.789px " y="93.75px ">i</tspan>rure <tspan x="169.082px " y="93.75px ">d</tspan>olor <tspan x="186.862px " y="93.75px ">i</tspan>n <tspan x="195.006px " y="93.75px ">r</tspan>eprehenderit <tspan x="237.617px " y="93.75px ">i</tspan>n <tspan x="245.761px " y="93.75px ">v</tspan>oluptate</text><text x="140.566px" y="100.635px" style="font-family:'ArialMT', 'Arial', sans-serif;font-size:6.667px;">velit <tspan x="154.514px " y="100.635px ">e</tspan>sse <tspan x="170.688px " y="100.635px ">c</tspan>illum <tspan x="189.817px " y="100.635px ">d</tspan>oloreeu <tspan x="217.857px " y="100.635px ">f</tspan>ugiat <tspan x="236.257px " y="100.635px ">n</tspan>ulla <tspan x="252.435px " y="100.635px ">p</tspan>ariatu</text><text x="140.566px" y="107.52px" style="font-family:'ArialMT', 'Arial', sans-serif;font-size:6.667px;">Excepteur <tspan x="173.017px " y="107.52px ">s</tspan>int <tspan x="185.827px " y="107.52px ">o</tspan>ccaecat <tspan x="214.944px " y="107.52px ">c</tspan>upidatat <tspan x="244.437px " y="107.52px ">n</tspan>on <tspan x="257.994px " y="107.52px ">p</tspan>roid</text><text x="140.566px" y="114.404px" style="font-family:'ArialMT', 'Arial', sans-serif;font-size:6.667px;">ent, <tspan x="154.485px " y="114.404px ">s</tspan>unt <tspan x="169.885px " y="114.404px ">i</tspan>n <tspan x="177.873px " y="114.404px ">c</tspan>ulpa <tspan x="196.609px " y="114.404px ">q</tspan>ui <tspan x="208.305px " y="114.404px ">o</tspan>fﬁcia <tspan x="228.519px " y="114.404px ">d</tspan>eserunt <tspan x="257.262px " y="114.404px ">m</tspan>ollit</text><text x="140.566px" y="121.289px" style="font-family:'ArialMT', 'Arial', sans-serif;font-size:6.667px;">anim <tspan x="157.282px " y="121.289px ">i</tspan>d <tspan x="164.736px " y="121.289px ">e</tspan>st <tspan x="175.895px " y="121.289px ">l</tspan>aborum <tspan x="202.246px " y="121.289px ">a</tspan>nd <tspan x="215.634px " y="121.289px ">t</tspan>hat <tspan x="229.02px " y="121.289px ">i</tspan>s <tspan x="236.1px " y="121.289px ">l</tspan>orem <tspan x="255.035px " y="121.289px ">i</tspan>psum</text></g></svg>